<?xml version="1.0" encoding="UTF-8"?>
<svg width="1000px" height="1000px" viewBox="0 0 1000 1000" version="1.1" xmlns="http://www.w3.org/2000/svg" xmlns:xlink="http://www.w3.org/1999/xlink">
    <title>NgRx Graphviz</title>
    <path fill="currentColor" d="M 331.01 428.96 C 392.997 428.96 443.248 481.043 443.248 545.285 C 443.248 609.53 392.997 661.612 331.01 661.612 C 269.021 661.612 218.771 609.53 218.771 545.285 C 218.771 481.043 269.021 428.96 331.01 428.96 L 480.662 118.76 C 418.674 118.76 368.422 170.842 368.422 235.084 C 368.422 299.33 418.674 351.411 480.662 351.411 C 542.651 351.411 592.899 299.33 592.899 235.084 C 592.899 170.842 542.651 118.76 480.662 118.76 L 331.01 428.96 Z M 667.727 506.512 C 729.716 506.512 779.967 558.591 779.967 622.837 C 779.967 687.081 729.716 739.161 667.727 739.161 C 605.738 739.161 555.486 687.081 555.486 622.837 C 555.486 558.591 605.738 506.512 667.727 506.512 Z" style="" transform="matrix(1, 0, 0, 0.964874, -3.616636, 54.635925)"></path>
    <rect fill="currentColor" x="168.98" y="214.101" width="50" height="300" transform="matrix(0.928509, 0.358267, -0.349004, 0.904501, 349.596987, 45.795818)"></rect>
    <rect fill="currentColor" x="580.976" y="326.6" width="50" height="300" transform="matrix(0.866228, -0.482097, 0.473319, 0.850454, -177.553526, 372.85234)"></rect>
</svg>