<svg width="72px" height="72px" viewBox="0 0 72 72" version="1.1" xmlns="http://www.w3.org/2000/svg">
  <g transform="matrix(0.006181, 0, 0, -0.006181, 5.095001, 36.679962)">
    <path d="M4329.9,4999.1c-1605.8-105.9-2809.3-504.5-3094.2-1024.4c-75.1-134.8-78.9-288.8-11.6-427.4c202.2-414,1057.1-779.8,2206.6-945.4c600.7-84.7,772.1-96.3,1578.9-96.3c841.4,0,1101.4,19.3,1732.9,125.2c1644.4,275.3,2453.1,906.9,1913.9,1492.2c-377.4,410.1-1338.2,718.2-2643.7,847.2C5662.4,5006.8,4684.2,5022.2,4329.9,4999.1z" style="fill: rgb(75, 49, 79);"></path>
    <path d="M1152.9,3273.9c-73.2-136.7-80.9-233-80.9-930c0-743.2,5.8-795.2,107.8-985.8c71.2-134.8,325.4-388.9,504.5-504.5c1448-949.3,4580.7-1041.7,6302-188.7c489.1,242.6,804.9,544.9,903.1,862.6c34.7,115.5,38.5,179.1,38.5,814.5c0,637.3-3.8,698.9-38.5,816.4c-21.2,69.3-46.2,129-53.9,134.8c-7.7,3.9-30.8-32.7-48.1-84.7C8616,2727,7547.4,2311.1,6087.9,2159c-406.3-42.4-1324.7-57.8-1761.8-30.8c-1667.5,107.8-2913.2,541.1-3115.4,1084C1177.9,3298.9,1170.2,3306.6,1152.9,3273.9z" style="fill: rgb(75, 49, 79);"></path>
    <path d="M1126,807.3c-42.4-109.7-44.3-129-50.1-831.8c-5.8-679.7-3.9-727.9,32.7-849.2c310-1018.6,2713-1682.8,5015.8-1386.3c1480.7,190.6,2564.7,731.7,2765,1380.6c34.7,115.5,38.5,179.1,38.5,814.5s-3.8,698.9-38.5,810.6c-55.8,181-69.3,192.5-119.4,123.2C8396.5,360.6,7526.2-41.8,6396-226.6c-749-123.2-1756-138.6-2520.4-38.5C2976.3-147.7,2208.1,98.8,1707.5,428c-163.7,107.8-404.3,327.3-464,423.6c-21.2,36.6-46.2,65.5-55.8,65.5S1151,867,1126,807.3z" style="fill: rgb(75, 49, 79);"></path>
    <path d="M1126-1657.3c-44.3-109.7-44.3-121.3-44.3-883.8v-770.2l75.1-150.2C1434-4023.7,2339-4480,3575.2-4684.1c498.7-82.8,810.6-105.9,1424.8-105.9c960.8,0,1657.8,100.1,2397.2,342.7c847.2,279.2,1384.4,685.5,1503.8,1136c19.3,75.1,27,265.7,27,783.7c0,633.5-3.8,697-38.5,808.7c-53.9,173.3-71.3,192.5-111.7,132.9c-17.3-27-92.4-111.7-167.5-188.7c-435.1-456.3-1332.4-804.8-2455-955c-785.6-105.9-1771.4-92.4-2560.9,36.6c-1124.5,184.9-2023.7,595-2351,1078.3c-25,36.6-52,67.4-59.7,67.4C1176-1547.5,1151-1597.6,1126-1657.3z" style="fill: rgb(75, 49, 79);"></path>
  </g>
</svg>
